<svg width="148" height="30" viewBox="0 0 148 30" fill="none" xmlns="http://www.w3.org/2000/svg">
<g clip-path="url(#clip0_0_114)">
<path d="M105.836 16.2329V15.8219H107.064C107.371 15.8219 107.781 15 107.781 15C107.781 15 114.331 0.205475 114.536 0.205475C114.741 0.205475 121.189 15 121.189 15C121.189 15 121.599 15.8219 122.52 15.8219H123.441V16.2329H116.993V15.8219H117.402C117.709 15.8219 117.709 15 117.709 15C117.709 15 113.717 5.34246 113.512 5.34246C113.308 5.34246 109.828 15 109.828 15C109.828 15 109.623 15.8219 110.647 15.8219H111.67V16.2329H105.836Z" fill="black" stroke="black"/>
<path fill-rule="evenodd" clip-rule="evenodd" d="M84.9552 0.616426V0.821878H86.2858C87.1047 0.821878 87.1047 1.74654 87.1047 1.74654V14.7945C87.1047 14.7945 86.9 15.9246 86.3882 15.9246H85.2623V16.2328H92.5295V15.9246H91.1989C90.4824 15.9246 90.2777 14.7945 90.2777 14.7945V9.76022H92.1201C94.0047 13.4801 96.6238 15.9246 97.545 16.1301C98.4662 16.3356 101.946 16.2328 101.946 16.2328V15.9246C101.946 15.9246 100.82 16.1301 100.411 15.7191C100.001 15.3082 94.4743 9.24652 94.8837 8.73282C94.8837 8.73282 97.0291 7.22779 97.545 5.75339C97.869 4.82748 97.852 4.21231 97.6473 3.28766C97.4426 2.363 95.5597 0.614786 94.3719 0.616426C93.1842 0.618063 84.9552 0.616426 84.9552 0.616426ZM90.4824 1.74488C90.4824 1.74488 90.3801 7.80818 90.4824 8.21748C90.5848 8.62679 93.1437 8.73118 93.9625 7.90926C94.7813 7.08734 94.679 5.13529 94.4743 4.41611C94.2696 3.69693 93.6554 1.93734 92.2225 1.73186C90.7895 1.52638 90.4824 1.74488 90.4824 1.74488Z" fill="black"/>
<path d="M84.9549 0.821885H84.8525V0.924625H84.9549V0.821885ZM84.9549 0.616432V0.513692L84.8525 0.513672V0.616432H84.9549ZM87.1044 14.7945L87.2051 14.8129L87.2067 14.8038V14.7945H87.1044ZM85.262 15.9246V15.8219H85.1596V15.9246H85.262ZM85.262 16.2328H85.1596V16.3356H85.262V16.2328ZM92.5292 16.2328V16.3356H92.6316V16.2328H92.5292ZM92.5292 15.9246H92.6316V15.8219H92.5292V15.9246ZM90.2774 14.7945H90.175V14.8038L90.1767 14.8129L90.2774 14.7945ZM90.2774 9.76023V9.65749H90.175V9.76023H90.2774ZM92.1198 9.76023L92.2111 9.71366L92.1826 9.65749H92.1198V9.76023ZM101.946 16.2328L101.949 16.3355L102.048 16.3326V16.2328H101.946ZM101.946 15.9246H102.048V15.8015L101.928 15.8236L101.946 15.9246ZM94.8834 8.73283L94.8248 8.64862L94.8128 8.65711L94.8036 8.66866L94.8834 8.73283ZM90.4821 1.74489L90.4229 1.66107L90.3806 1.69115L90.3797 1.74315L90.4821 1.74489ZM85.0573 0.821885V0.616432H84.8525V0.821885H85.0573ZM86.2855 0.719145H84.9549V0.924625H86.2855V0.719145ZM87.1044 1.74654C87.2067 1.74654 87.2067 1.7465 87.2067 1.74644C87.2067 1.74642 87.2067 1.74649 87.2067 1.74644C87.2067 1.74636 87.2067 1.74613 87.2067 1.74602C87.2067 1.74578 87.2067 1.74549 87.2067 1.74515C87.2067 1.74446 87.2067 1.74355 87.2067 1.74242C87.2067 1.74016 87.2065 1.73704 87.2065 1.73312C87.2063 1.72527 87.2057 1.71418 87.2049 1.7003C87.2032 1.67259 87.1998 1.63358 87.1928 1.58701C87.1791 1.49438 87.1517 1.36913 87.0956 1.24249C87.0395 1.11575 86.9531 0.984162 86.8204 0.884172C86.6863 0.78323 86.5109 0.719145 86.2855 0.719145V0.924625C86.4696 0.924625 86.6012 0.976122 86.6974 1.04856C86.795 1.12194 86.8622 1.22152 86.9085 1.32594C86.9547 1.43046 86.9785 1.53638 86.9903 1.61712C86.9963 1.65723 86.9991 1.69047 87.0006 1.71332C87.0014 1.72473 87.0016 1.73351 87.0018 1.7392C87.002 1.74205 87.002 1.74412 87.002 1.74536C87.002 1.74599 87.002 1.7464 87.002 1.7466C87.002 1.74661 87.002 1.7467 87.002 1.7466C87.002 1.74656 87.002 1.74654 87.1044 1.74654ZM87.2067 14.7945V1.74644L87.002 1.7466V14.7945H87.2067ZM86.3879 16.0274C86.557 16.0274 86.6917 15.9332 86.7932 15.8152C86.8947 15.6972 86.9733 15.5443 87.0327 15.3985C87.0927 15.2515 87.1357 15.1054 87.1635 14.9967C87.1774 14.9422 87.1879 14.8967 87.1946 14.8646C87.1981 14.8485 87.2006 14.8358 87.2024 14.827C87.2032 14.8226 87.2039 14.8192 87.2043 14.8168C87.2045 14.8156 87.2047 14.8147 87.2049 14.814C87.2049 14.8137 87.2049 14.8134 87.2051 14.8133C87.2051 14.8131 87.2051 14.8129 87.2051 14.8129C87.2051 14.8128 87.2051 14.8129 87.2051 14.8129C87.2051 14.8128 87.2051 14.8129 87.1044 14.7945C87.0036 14.7761 87.0036 14.7761 87.0036 14.7761C87.0036 14.7762 87.0036 14.7764 87.0036 14.7766C87.0034 14.777 87.0034 14.7777 87.0032 14.7786C87.0028 14.7805 87.0022 14.7835 87.0016 14.7873C87 14.7951 86.9977 14.8067 86.9944 14.8215C86.9881 14.8513 86.9785 14.894 86.9652 14.9455C86.9388 15.0486 86.8986 15.1851 86.8434 15.3207C86.7877 15.4573 86.7191 15.587 86.6382 15.6809C86.5576 15.7747 86.4747 15.8219 86.3879 15.8219V16.0274ZM85.262 16.0274H86.3879V15.8219H85.262V16.0274ZM85.3643 16.2328V15.9246H85.1596V16.2328H85.3643ZM92.5292 16.1301H85.262V16.3356H92.5292V16.1301ZM92.4269 15.9246V16.2328H92.6316V15.9246H92.4269ZM91.1986 16.0274H92.5292V15.8219H91.1986V16.0274ZM90.2774 14.7945C90.1767 14.8129 90.1767 14.8128 90.1767 14.8129C90.1767 14.8128 90.1767 14.8129 90.1767 14.8129C90.1767 14.8129 90.1767 14.8132 90.1767 14.8133C90.1769 14.8135 90.1769 14.8138 90.1769 14.8142C90.1771 14.8149 90.1773 14.8159 90.1775 14.8171C90.1779 14.8196 90.1787 14.8231 90.1795 14.8276C90.1814 14.8366 90.184 14.8495 90.1877 14.8658C90.1951 14.8983 90.2064 14.9444 90.2221 14.9995C90.2536 15.1093 90.3038 15.2569 90.3777 15.4055C90.5222 15.6955 90.7783 16.0274 91.1986 16.0274V15.8219C90.9024 15.8219 90.6979 15.5887 90.5609 15.3136C90.4942 15.1797 90.4481 15.0447 90.4188 14.9426C90.4043 14.8918 90.3941 14.8496 90.3873 14.8203C90.384 14.8056 90.3818 14.7943 90.3802 14.7867C90.3793 14.783 90.3789 14.7801 90.3785 14.7783C90.3783 14.7775 90.3783 14.7768 90.3781 14.7764C90.3781 14.7762 90.3781 14.7761 90.3781 14.7761C90.3781 14.7761 90.3781 14.7761 90.2774 14.7945ZM90.175 9.76023V14.7945H90.3797V9.76023H90.175ZM92.1198 9.65749H90.2774V9.86296H92.1198V9.65749ZM97.5668 16.0298C97.3602 15.9837 97.039 15.805 96.6363 15.4902C96.2372 15.1782 95.7688 14.7413 95.2689 14.1936C94.2695 13.0984 93.1489 11.5649 92.2111 9.71366L92.0285 9.80681C92.9753 11.6754 94.1065 13.2241 95.118 14.3324C95.6236 14.8866 96.1004 15.3318 96.5104 15.6523C96.9168 15.9698 97.2685 16.1737 97.5225 16.2304L97.5668 16.0298ZM101.946 16.2328C101.943 16.1301 101.943 16.1301 101.943 16.1301C101.943 16.1301 101.942 16.1302 101.942 16.1302C101.942 16.1302 101.941 16.1302 101.94 16.1302C101.939 16.1303 101.936 16.1303 101.933 16.1304C101.926 16.1306 101.917 16.1309 101.904 16.1312C101.878 16.1319 101.841 16.1329 101.792 16.1342C101.695 16.1366 101.556 16.1398 101.386 16.143C101.046 16.1494 100.583 16.1558 100.091 16.1558C99.5989 16.1558 99.079 16.1494 98.6253 16.1302C98.169 16.1109 97.7872 16.079 97.5668 16.0298L97.5225 16.2304C97.7627 16.284 98.1614 16.3163 98.6167 16.3355C99.0745 16.3548 99.5975 16.3613 100.091 16.3613C100.584 16.3613 101.049 16.3548 101.39 16.3484C101.56 16.3452 101.7 16.342 101.797 16.3396C101.846 16.3384 101.884 16.3374 101.91 16.3367C101.922 16.3363 101.932 16.336 101.939 16.3358C101.942 16.3357 101.945 16.3357 101.946 16.3356C101.947 16.3356 101.948 16.3356 101.948 16.3356C101.949 16.3355 101.949 16.3355 101.949 16.3355C101.949 16.3355 101.949 16.3355 101.946 16.2328ZM101.844 15.9246V16.2328H102.048V15.9246H101.844ZM100.338 15.7918C100.46 15.9135 100.627 15.9839 100.8 16.0246C100.973 16.0656 101.161 16.0787 101.332 16.0787C101.503 16.0787 101.661 16.0655 101.775 16.0524C101.833 16.0458 101.879 16.0392 101.912 16.0342C101.929 16.0317 101.941 16.0296 101.95 16.0282C101.955 16.0274 101.958 16.0268 101.96 16.0264C101.962 16.0262 101.963 16.026 101.963 16.0259C101.963 16.0259 101.964 16.0258 101.964 16.0258C101.964 16.0258 101.964 16.0258 101.964 16.0258C101.964 16.0258 101.964 16.0257 101.964 16.0257C101.964 16.0257 101.964 16.0257 101.946 15.9246C101.928 15.8236 101.928 15.8236 101.928 15.8236C101.928 15.8236 101.928 15.8236 101.928 15.8236C101.928 15.8236 101.927 15.8236 101.927 15.8236C101.927 15.8237 101.926 15.8238 101.925 15.824C101.923 15.8243 101.92 15.8248 101.916 15.8255C101.908 15.8268 101.897 15.8288 101.881 15.8311C101.851 15.8357 101.807 15.842 101.752 15.8482C101.643 15.8608 101.493 15.8733 101.332 15.8733C101.17 15.8733 100.999 15.8607 100.847 15.8246C100.693 15.7883 100.566 15.7303 100.483 15.6465L100.338 15.7918ZM94.8036 8.66866C94.7454 8.74148 94.755 8.83937 94.7743 8.91632C94.7952 9.00071 94.8382 9.10076 94.8959 9.21139C95.0122 9.43376 95.1995 9.71905 95.4339 10.0437C95.9033 10.6939 96.5706 11.5151 97.2619 12.3311C98.6444 13.9628 100.131 15.5834 100.338 15.7918L100.483 15.6465C100.281 15.4439 98.7991 13.8282 97.4179 12.198C96.7274 11.383 96.0642 10.5667 95.5997 9.92309C95.3669 9.60075 95.1864 9.32498 95.0773 9.11592C95.0222 9.01084 94.988 8.9276 94.9729 8.86653C94.9559 8.79807 94.9702 8.78839 94.9632 8.79702L94.8036 8.66866ZM97.448 5.71935C97.1989 6.43123 96.5502 7.16163 95.9508 7.72076C95.6531 7.99857 95.3712 8.23086 95.1636 8.39368C95.0599 8.47507 94.9749 8.539 94.9159 8.58252C94.8865 8.60426 94.8635 8.6209 94.848 8.63204C94.8402 8.63761 94.8345 8.64182 94.8304 8.64459C94.8285 8.64597 94.8271 8.64702 94.8261 8.6477C94.8257 8.64803 94.8253 8.64827 94.8251 8.64844C94.8249 8.6485 94.8248 8.64858 94.8248 8.64862C94.8248 8.64862 94.8249 8.64862 94.8834 8.73283C94.9419 8.81705 94.9421 8.81703 94.9421 8.81701C94.9421 8.81699 94.9421 8.81705 94.9421 8.81701C94.9424 8.81695 94.9424 8.81679 94.9426 8.81668C94.9428 8.81648 94.9432 8.81617 94.9438 8.81578C94.945 8.815 94.9467 8.81385 94.9487 8.81235C94.953 8.80935 94.9591 8.80491 94.9671 8.79912C94.9833 8.78749 95.007 8.77035 95.0371 8.74805C95.0975 8.70351 95.1843 8.63833 95.2897 8.55558C95.5006 8.39013 95.7872 8.15401 96.0902 7.87127C96.6926 7.30929 97.3743 6.54996 97.6413 5.78744L97.448 5.71935ZM97.5471 3.30994C97.6486 3.76848 97.7021 4.14412 97.6918 4.51719C97.6814 4.88948 97.6073 5.26411 97.448 5.71935L97.6413 5.78744C97.8059 5.31675 97.8853 4.92085 97.8963 4.5229C97.9074 4.12575 97.8501 3.73148 97.7469 3.26537L97.5471 3.30994ZM94.3718 0.719172C94.6457 0.718794 94.9694 0.820066 95.309 0.994549C95.6472 1.16828 95.9938 1.41065 96.3115 1.68283C96.6292 1.95496 96.9156 2.25494 97.1346 2.54237C97.3551 2.83197 97.5006 3.10043 97.5471 3.30994L97.7469 3.26537C97.691 3.01257 97.5244 2.71575 97.2971 2.41756C97.0685 2.11719 96.7715 1.80684 96.4443 1.52654C96.1172 1.2463 95.7575 0.994128 95.4023 0.811631C95.0484 0.629891 94.6914 0.513251 94.3714 0.513692L94.3718 0.719172ZM84.9549 0.616432C84.9549 0.719172 84.9549 0.719145 84.9549 0.719145C84.9551 0.719145 84.9551 0.719172 84.9553 0.719172C84.9555 0.719172 84.9559 0.719172 84.9563 0.719172C84.9573 0.719172 84.9588 0.719172 84.9608 0.719172C84.9647 0.719174 84.9707 0.719174 84.9784 0.719176C84.9942 0.719178 85.0173 0.719182 85.0476 0.719188C85.1082 0.719201 85.1971 0.719217 85.3109 0.719238C85.5381 0.719281 85.8642 0.719338 86.2593 0.719402C87.0493 0.719529 88.115 0.719683 89.2178 0.719786C91.4236 0.71999 93.7778 0.71999 94.3718 0.719172L94.3714 0.513692C93.7778 0.51451 91.4236 0.51451 89.2178 0.514307C88.115 0.514204 87.0493 0.51405 86.2593 0.513923C85.8642 0.513859 85.5381 0.513801 85.3109 0.513758C85.1971 0.513738 85.1082 0.513721 85.0476 0.513709C85.0173 0.513703 84.9942 0.513699 84.9786 0.513697C84.9707 0.513694 84.9649 0.513694 84.9608 0.513692C84.959 0.513692 84.9573 0.513692 84.9563 0.513692C84.9559 0.513692 84.9555 0.513692 84.9553 0.513692C84.9551 0.513692 84.9551 0.513692 84.9551 0.513692C84.9549 0.513692 84.9549 0.513692 84.9549 0.616432ZM90.5814 8.19248C90.5775 8.17674 90.5722 8.13757 90.5673 8.06985C90.5626 8.00485 90.5585 7.92022 90.555 7.81834C90.548 7.61471 90.5437 7.34535 90.5413 7.03269C90.5366 6.40752 90.5396 5.61188 90.546 4.82853C90.5525 4.04531 90.5621 3.27482 90.5701 2.70011C90.574 2.41275 90.5777 2.17438 90.5802 2.00783C90.5816 1.92456 90.5826 1.85925 90.5832 1.81476C90.5836 1.79252 90.584 1.77548 90.5843 1.76401C90.5843 1.75827 90.5843 1.75392 90.5845 1.75101C90.5845 1.74955 90.5845 1.74846 90.5845 1.74773C90.5845 1.74736 90.5845 1.74708 90.5845 1.7469C90.5845 1.74681 90.5845 1.74695 90.5845 1.7469C90.5845 1.74686 90.5845 1.74663 90.4821 1.74489C90.3797 1.74315 90.3797 1.7431 90.3797 1.74315C90.3797 1.74319 90.3797 1.74333 90.3797 1.74343C90.3797 1.74361 90.3797 1.74389 90.3797 1.74426C90.3797 1.745 90.3797 1.7461 90.3797 1.74756C90.3795 1.75048 90.3795 1.75484 90.3795 1.76058C90.3793 1.77208 90.3789 1.78914 90.3787 1.8114C90.3779 1.85593 90.3769 1.92129 90.3757 2.00461C90.373 2.17125 90.3693 2.40975 90.3654 2.69724C90.3574 3.27219 90.3478 4.04311 90.3415 4.82687C90.3349 5.61051 90.3318 6.40744 90.3366 7.03425C90.339 7.34759 90.3433 7.61907 90.3505 7.82537C90.354 7.92846 90.358 8.01605 90.3632 8.08485C90.3679 8.15091 90.374 8.20707 90.3828 8.24251L90.5814 8.19248ZM93.8897 7.83663C93.703 8.02409 93.4091 8.16546 93.06 8.26273C92.7128 8.35949 92.3214 8.40988 91.9501 8.42241C91.5783 8.43494 91.2315 8.40942 90.9742 8.3569C90.8451 8.33054 90.7431 8.2983 90.6729 8.26339C90.5965 8.22552 90.5826 8.19706 90.5814 8.19248L90.3828 8.24251C90.4072 8.34024 90.4956 8.40457 90.582 8.44756C90.6745 8.49348 90.7957 8.53012 90.9335 8.55827C91.2103 8.61476 91.5736 8.64071 91.9568 8.62777C92.3405 8.61482 92.7487 8.56279 93.1147 8.46073C93.4791 8.3592 93.8119 8.2054 94.0347 7.98192L93.8897 7.83663ZM94.3755 4.44435C94.474 4.79031 94.5503 5.44569 94.4998 6.11644C94.4492 6.79098 94.2723 7.45271 93.8897 7.83663L94.0347 7.98192C94.4709 7.5439 94.6523 6.81866 94.7041 6.13191C94.7559 5.44133 94.6787 4.76111 94.5724 4.3879L94.3755 4.44435ZM92.2076 1.83358C92.8825 1.93034 93.3722 2.39377 93.7227 2.9372C94.0727 3.48001 94.2742 4.08827 94.3755 4.44435L94.5724 4.3879C94.4691 4.0248 94.2611 3.39367 93.8946 2.82552C93.5286 2.25798 92.9947 1.73887 92.2367 1.63016L92.2076 1.83358ZM90.4821 1.74489C90.5413 1.8287 90.5413 1.82878 90.5411 1.82886C90.5411 1.82888 90.5409 1.82895 90.5409 1.829C90.5406 1.82909 90.5407 1.82918 90.5404 1.82927C90.5402 1.82945 90.54 1.82961 90.5398 1.82975C90.5394 1.83004 90.539 1.83026 90.5388 1.83044C90.5382 1.83078 90.538 1.8309 90.5382 1.83081C90.5384 1.83063 90.5402 1.82961 90.5435 1.82794C90.5503 1.8246 90.5636 1.81861 90.5851 1.81134C90.6283 1.79678 90.7042 1.77722 90.8262 1.76342C91.0709 1.73576 91.4966 1.73161 92.2076 1.83358L92.2367 1.63016C91.5147 1.52665 91.0704 1.52901 90.8033 1.55923C90.6694 1.57436 90.5791 1.59659 90.5198 1.61658C90.4903 1.62658 90.4684 1.63606 90.4526 1.64386C90.4448 1.64776 90.4385 1.65124 90.4336 1.65416C90.4311 1.65562 90.4291 1.65694 90.4272 1.6581C90.4264 1.65868 90.4256 1.65922 90.4248 1.65971C90.4246 1.65996 90.4242 1.6602 90.4238 1.66043C90.4238 1.66054 90.4236 1.66065 90.4234 1.66076C90.4234 1.66081 90.4231 1.66089 90.4231 1.66092C90.4229 1.661 90.4229 1.66107 90.4821 1.74489Z" fill="black"/>
<path d="M61.6182 0.410954V0.205475H68.6807V0.410954H67.6572C67.2477 0.410954 66.7359 1.54109 66.7359 1.54109V11.4041C66.7359 11.4041 67.043 14.4863 69.4996 14.7945H71.9561C74.2079 14.0753 74.2079 11.1986 74.2079 11.1986V1.33561C74.2079 1.33561 74.0032 0.410954 73.3891 0.410954H72.0584V0.205475H78.3021V0.410954H77.0739C76.6645 0.410954 76.3574 1.33561 76.3574 1.33561C76.3574 1.33561 76.255 10.5822 76.1527 11.1986C76.0503 11.8151 75.2315 14.2808 73.7985 15.2055C72.3655 16.1301 71.5467 16.1301 71.5467 16.1301C71.5467 16.1301 68.6807 16.2329 68.3736 16.1301C68.0666 16.0274 67.2477 16.1301 66.0195 15.2055C64.7912 14.2808 63.6653 12.637 63.5629 11.1986C63.4606 9.76027 63.4606 1.33561 63.4606 1.33561C63.4606 1.33561 63.2559 0.410954 62.7441 0.410954H61.6182Z" fill="black" stroke="black"/>
<mask id="mask0_0_114" style="mask-type:luminance" maskUnits="userSpaceOnUse" x="36" y="22" width="73" height="8">
<path d="M108.906 22.1918H36.6433V30H108.906V22.1918Z" fill="white"/>
</mask>
<g mask="url(#mask0_0_114)">
<path d="M36.7634 29.7945V22.3225H39.5549C40.1268 22.3225 40.6065 22.4223 40.9942 22.6216C41.3844 22.8212 41.6788 23.1008 41.8775 23.4608C42.0786 23.8184 42.1793 24.2355 42.1793 24.7122C42.1793 25.1914 42.0773 25.6073 41.8738 25.9601C41.6728 26.3102 41.376 26.5814 40.9833 26.7736C40.5907 26.9634 40.1086 27.0581 39.5367 27.0581H37.5485V25.9344H39.3549C39.6894 25.9344 39.9633 25.8884 40.1764 25.7959C40.3897 25.701 40.5471 25.5635 40.6488 25.3835C40.753 25.2012 40.8052 24.9775 40.8052 24.7122C40.8052 24.4471 40.753 24.2209 40.6488 24.0337C40.5447 23.8438 40.386 23.7004 40.1727 23.6032C39.9596 23.5034 39.6845 23.4536 39.3477 23.4536H38.1119V29.7945H36.7634ZM40.6089 26.4088L42.4517 29.7945H40.9469L39.1369 26.4088H40.6089ZM48.0264 29.7945V22.3225H52.8681V23.4571H49.3749V25.4856H52.6173V26.6205H49.3749V28.6599H52.8971V29.7945H48.0264ZM62.8953 24.3766C62.8615 24.0579 62.7184 23.8099 62.4664 23.6324C62.2168 23.4547 61.8922 23.3659 61.4924 23.3659C61.2113 23.3659 60.9701 23.4086 60.7689 23.4937C60.5679 23.5788 60.4139 23.6942 60.3073 23.8403C60.2006 23.9862 60.1462 24.1529 60.1437 24.3401C60.1437 24.4958 60.1789 24.6308 60.2491 24.7451C60.3218 24.8593 60.4201 24.9567 60.5435 25.037C60.6672 25.1147 60.8041 25.1805 60.9544 25.2339C61.1046 25.2875 61.2561 25.3325 61.4086 25.3689L62.1065 25.5442C62.3876 25.6097 62.6578 25.6985 62.9172 25.8105C63.1788 25.9223 63.4128 26.0634 63.6187 26.2336C63.8271 26.4039 63.9919 26.6094 64.1131 26.8502C64.2341 27.091 64.2947 27.3731 64.2947 27.6966C64.2947 28.1344 64.1833 28.5199 63.9604 28.8532C63.7374 29.184 63.415 29.4429 62.9935 29.6303C62.5743 29.8153 62.0666 29.9075 61.4705 29.9075C60.8913 29.9075 60.3886 29.8175 59.9621 29.6375C59.538 29.4577 59.2059 29.1949 58.966 28.8495C58.7286 28.5041 58.6002 28.0835 58.5807 27.5873H59.9075C59.9269 27.8474 60.0068 28.064 60.1474 28.2366C60.288 28.4094 60.4709 28.5382 60.6962 28.6233C60.9241 28.7086 61.1785 28.7511 61.4596 28.7511C61.7528 28.7511 62.0097 28.7073 62.2301 28.6198C62.4531 28.5298 62.6275 28.4057 62.7536 28.2477C62.8795 28.087 62.9438 27.8998 62.9462 27.6857C62.9438 27.4911 62.8869 27.3306 62.7753 27.204C62.6639 27.0752 62.5075 26.9681 62.3065 26.8831C62.1077 26.7955 61.8752 26.7177 61.6086 26.6497L60.7617 26.4306C60.1486 26.2726 59.6641 26.033 59.3077 25.7118C58.9539 25.3884 58.7771 24.9592 58.7771 24.4241C58.7771 23.9838 58.8958 23.5983 59.1333 23.2675C59.3732 22.9366 59.6991 22.68 60.111 22.4977C60.5231 22.3128 60.9894 22.2203 61.5104 22.2203C62.0387 22.2203 62.5016 22.3128 62.8989 22.4977C63.2987 22.68 63.6126 22.9342 63.8404 23.2603C64.0682 23.5837 64.1858 23.9558 64.1929 24.3766H62.8953ZM70.1029 29.7945V22.3225H74.9446V23.4571H71.4514V25.4856H74.6936V26.6205H71.4514V28.6599H74.9736V29.7945H70.1029ZM80.9262 29.7945V22.3225H83.7177C84.2896 22.3225 84.7695 22.4223 85.1572 22.6216C85.5472 22.8212 85.8418 23.1008 86.0403 23.4608C86.2416 23.8184 86.3421 24.2355 86.3421 24.7122C86.3421 25.1914 86.2403 25.6073 86.0368 25.9601C85.8356 26.3102 85.5388 26.5814 85.1462 26.7736C84.7537 26.9634 84.2714 27.0581 83.6997 27.0581H81.7113V25.9344H83.5179C83.8522 25.9344 84.1261 25.8884 84.3394 25.7959C84.5525 25.701 84.7101 25.5635 84.8119 25.3835C84.9161 25.2012 84.9681 24.9775 84.9681 24.7122C84.9681 24.4471 84.9161 24.2209 84.8119 24.0337C84.7077 23.8438 84.549 23.7004 84.3357 23.6032C84.1224 23.5034 83.8475 23.4536 83.5105 23.4536H82.2747V29.7945H80.9262ZM84.7719 26.4088L86.6147 29.7945H85.1099L83.2999 26.4088H84.7719ZM92.9954 22.3225L94.9328 28.2037H95.0092L96.9429 22.3225H98.4258L95.8014 29.7945H94.1367L91.516 22.3225H92.9954ZM104.012 29.7945V22.3225H108.854V23.4571H105.361V25.4856H108.603V26.6205H105.361V28.6599H108.883V29.7945H104.012Z" fill="black"/>
</g>
<path d="M1.43335 0.718951H0.205078V0.616211H7.47233V0.718951H6.34642L5.52757 1.64361V7.39703H6.03935L11.3618 1.23265L10.9524 0.718951H10.3383V0.616211H16.1726V0.718951H14.7396L14.0231 1.02717L8.18882 6.88333C8.18882 6.88333 10.1336 9.64151 11.3618 11.4039C12.5901 13.1663 13.409 14.3833 15.7631 15.6162L17.5032 15.8217V16.1299C17.5032 16.1299 14.6393 16.5794 12.8972 16.1299C11.2517 15.7053 9.41709 13.9724 8.61208 12.7395C7.8071 11.5066 6.03935 8.42443 6.03935 8.42443H5.52757V14.5888L6.34642 15.8217H7.7794V16.1299H0.40979V15.8217H1.43335L2.25219 14.5888V1.64361L1.43335 0.718951Z" fill="black"/>
<path d="M5.52757 8.42443V14.5888L6.34642 15.8217H7.7794V16.1299H0.40979V15.8217H1.43335L2.25219 14.5888V1.64361L1.43335 0.718951H0.205078V0.616211H7.47233V0.718951H6.34642L5.52757 1.64361V7.39703M5.52757 8.42443H6.03935C6.03935 8.42443 7.8071 11.5066 8.61208 12.7395C9.41709 13.9724 11.2517 15.7053 12.8972 16.1299C14.6393 16.5794 17.5032 16.1299 17.5032 16.1299V15.8217M5.52757 8.42443V7.39703M5.52757 7.39703H6.03935L11.3618 1.23265L10.9524 0.718951H10.3383V0.616211H16.1726V0.718951H14.7396L14.0231 1.02717L8.18882 6.88333C8.18882 6.88333 10.1336 9.64151 11.3618 11.4039C12.5901 13.1663 13.409 14.3833 15.7631 15.6162M17.5032 15.8217C17.5032 15.8217 16.9417 15.8217 16.582 15.8217C16.582 15.8217 17.0938 16.6436 15.7631 15.6162M17.5032 15.8217L15.7631 15.6162" stroke="black"/>
<path d="M23.1328 0.616211V0.82169H24.054C24.7705 0.82169 24.8729 1.64361 24.8729 1.64361V14.7943C24.8729 14.7943 24.5658 15.9244 24.2587 15.9244H23.1328V16.1299H34.1872V12.6368H34.0849C34.0849 12.6368 34.0542 13.1459 33.9825 13.4587C33.8239 14.1504 32.7542 14.7943 32.7542 14.7943C32.7542 14.7943 30.4117 15.5408 29.2742 14.7943C28.8484 14.5148 28.353 13.8696 28.353 13.8696V8.32169H31.9354C31.9354 8.32169 32.7454 8.60051 32.959 9.04087C33.1514 9.43771 33.1637 10.171 33.1637 10.171H33.3684V6.36964C33.3684 6.36964 33.1637 6.88333 32.7542 7.08881C32.3448 7.29429 28.353 7.08881 28.353 7.08881V1.84909H32.2425C32.2425 1.84909 33.0028 2.28929 33.1637 2.77375C33.2775 3.11632 33.266 3.6984 33.266 3.6984H33.5731V0.616211H23.1328Z" fill="black" stroke="black"/>
<path d="M42.0682 0.722488C41.7611 0.722488 41.147 0.308878 41.147 0.308878L40.9423 0.205475V4.03138H41.147V2.68713C41.147 2.68713 41.147 1.96332 42.0682 1.96332H46.06V14.7852C46.06 14.7852 46.06 15.9227 45.5483 15.9227H44.1153V16.2329H51.6896V15.9227H50.359C49.5401 15.9227 49.5401 14.7852 49.5401 14.7852L49.4378 1.96332H53.8391C54.4532 1.96332 54.6579 2.68713 54.6579 2.68713V4.03138H54.8626V0.308878C54.8626 0.308878 54.1461 0.722488 53.8391 0.722488H42.0682Z" fill="black" stroke="black"/>
<path d="M129.173 0.513694V0.205475H136.44V0.513694H135.314C134.598 0.513694 134.598 1.43835 134.598 1.43835V6.9863H141.456V1.43835C141.456 1.43835 141.353 0.513694 140.739 0.513694H139.408V0.205475H146.778V0.513694H145.55C144.731 0.513694 144.833 1.43835 144.833 1.43835V14.7945C144.833 14.7945 144.833 15.6164 145.754 15.6164H147.085V15.9247H139.715V15.6164H140.739C141.353 15.6164 141.456 14.7945 141.456 14.7945V8.11643H134.598V14.7945C134.598 14.7945 134.598 15.6164 135.519 15.6164H136.85V15.9247H129.173V15.6164H130.503C131.015 15.6164 131.015 14.7945 131.015 14.7945L131.22 1.43835C131.22 1.43835 131.322 0.513694 130.503 0.513694H129.173Z" fill="black" stroke="black"/>
</g>
<defs>
<clipPath id="clip0_0_114">
<rect width="147.188" height="30" fill="white"/>
</clipPath>
</defs>
</svg>
